<?xml version="1.0" standalone="no"?>
<!DOCTYPE svg PUBLIC "-//W3C//DTD SVG 20010904//EN"
 "http://www.w3.org/TR/2001/REC-SVG-20010904/DTD/svg10.dtd">
<svg version="1.0" xmlns="http://www.w3.org/2000/svg"
 width="500.000000pt" height="500.000000pt" viewBox="0 0 500.000000 500.000000"
 preserveAspectRatio="xMidYMid meet">

<g transform="translate(0.000000,500.000000) scale(0.100000,-0.100000)"
fill="#000000" stroke="none">
<path d="M3458 3425 c-37 -21 -57 -57 -133 -245 -37 -91 -80 -197 -97 -237
l-29 -71 -51 31 c-43 27 -58 31 -118 31 -87 -1 -146 -29 -221 -103 -151 -151
-180 -402 -59 -505 45 -37 95 -49 197 -45 78 3 96 8 124 28 22 16 34 20 37 13
9 -28 61 -42 152 -42 140 0 189 28 190 107 0 58 -23 73 -117 73 -48 0 -73 4
-73 11 0 7 77 201 170 431 184 454 191 480 144 517 -31 24 -77 26 -116 6z
m-374 -669 c52 -22 52 -42 0 -166 -50 -120 -60 -130 -130 -130 -41 0 -84 37
-84 73 0 13 7 47 16 76 17 60 93 146 135 154 13 2 25 5 27 6 1 0 18 -5 36 -13z"/>
<path d="M3775 3178 c-38 -21 -55 -51 -55 -101 0 -42 5 -54 34 -83 29 -29 41
-34 80 -34 67 0 107 38 114 108 4 49 2 54 -31 87 -29 29 -42 35 -78 35 -24 0
-53 -6 -64 -12z"/>
<path d="M4096 3006 c-35 -37 -147 -312 -146 -358 0 -39 36 -68 83 -68 49 0
84 35 111 108 17 51 19 52 57 52 21 0 39 -3 39 -6 0 -3 -15 -24 -34 -47 -76
-95 -99 -178 -73 -268 32 -107 92 -139 267 -139 166 0 220 26 220 107 0 57
-29 73 -134 73 -102 0 -136 12 -150 53 -8 21 -5 37 12 73 31 64 118 154 149
154 36 0 90 26 102 48 19 35 13 89 -11 112 -20 18 -35 20 -166 20 -79 0 -151
4 -161 10 -10 5 -22 25 -25 44 -14 71 -88 88 -140 32z"/>
<path d="M2171 2930 c-100 -21 -199 -107 -257 -224 -66 -134 -57 -291 21 -367
46 -45 85 -57 185 -58 73 -1 91 3 130 25 37 21 46 23 55 11 20 -28 56 -37 145
-37 134 0 190 31 190 107 0 56 -28 73 -115 73 -41 0 -75 4 -75 8 0 5 32 88 71
185 76 190 80 221 36 252 -35 25 -101 19 -137 -11 l-31 -27 -22 20 c-47 43
-118 58 -196 43z m132 -188 c24 -22 19 -52 -28 -165 -41 -96 -64 -117 -130
-117 -50 0 -75 28 -75 85 0 59 22 111 68 159 63 65 120 79 165 38z"/>
<path d="M3695 2888 c-27 -27 -51 -75 -120 -248 -47 -118 -85 -229 -85 -248 0
-82 60 -112 220 -112 115 0 151 8 188 42 16 16 22 33 22 64 0 59 -23 74 -117
74 -52 0 -73 4 -73 13 0 6 29 84 65 172 38 93 65 175 65 196 0 81 -99 109
-165 47z"/>
<path d="M4742 2462 c-40 -37 -50 -88 -27 -136 45 -94 186 -85 216 13 15 50 6
86 -31 122 -24 24 -37 29 -78 29 -41 0 -55 -5 -80 -28z"/>
</g>
</svg>
